#N canvas 995 217 838 564 10;
#X obj 67 35 loadbang;
#X obj 152 209 textfile;
#X msg 77 136 bang;
#X obj 167 32 bng 15 250 50 0 empty empty empty 17 7 0 10 -262144 -1
-1;
#X msg 353 136 clear;
#X msg 285 184 print;
#X obj 225 225 print EOF REACHED;
#X obj 169 421 ml.svm;
#X obj 138 297 prepend add;
#X obj 242 468 print INFO;
#X obj 142 468 print PREDICT;
#X msg 284 364 clear;
#X msg 231 366 train;
#X obj 588 59 bng 15 250 50 0 empty empty empty 17 7 0 10 -262144 -1
-1;
#X obj 583 329 textfile;
#X msg 517 257 bang;
#X msg 555 257 rewind;
#X msg 701 306 print;
#X msg 607 257 read /tmp/mapping.txt cr;
#X obj 706 404 prepend map;
#X obj 84 332 print;
#X msg 117 136 rewind;
#X obj 628 360 print PREDICTION_END;
#X obj 588 193 trigger b b b b;
#X msg 765 257 clear;
#X obj 583 387 trigger bang array;
#X obj 85 246 trigger bang array;
#X obj 157 73 trigger b b b b;
#X msg 168 136 read /tmp/training.txt cr;
#X obj 353 438 bng 15 250 50 0 empty empty empty 17 7 0 10 -262144
-1 -1;
#X obj 17 185 delay 15;
#X obj 480 337 delay 20;
#X connect 0 0 27 0;
#X connect 1 0 26 0;
#X connect 1 1 12 0;
#X connect 2 0 1 0;
#X connect 3 0 27 0;
#X connect 4 0 1 0;
#X connect 5 0 1 0;
#X connect 7 0 10 0;
#X connect 7 1 9 0;
#X connect 7 1 29 0;
#X connect 8 0 7 0;
#X connect 11 0 7 0;
#X connect 12 0 7 0;
#X connect 13 0 23 0;
#X connect 14 0 25 0;
#X connect 14 1 22 0;
#X connect 15 0 14 0;
#X connect 16 0 14 0;
#X connect 17 0 14 0;
#X connect 18 0 14 0;
#X connect 19 0 7 0;
#X connect 21 0 1 0;
#X connect 23 0 15 0;
#X connect 23 1 16 0;
#X connect 23 2 18 0;
#X connect 23 3 24 0;
#X connect 24 0 14 0;
#X connect 25 0 31 0;
#X connect 25 1 19 0;
#X connect 26 0 30 0;
#X connect 26 1 8 0;
#X connect 27 0 2 0;
#X connect 27 1 21 0;
#X connect 27 2 28 0;
#X connect 27 3 4 0;
#X connect 28 0 1 0;
#X connect 29 0 13 0;
#X connect 30 0 2 0;
#X connect 31 0 15 0;
